<svg width="89" height="90" viewBox="0 0 89 90" fill="none" xmlns="http://www.w3.org/2000/svg">
<circle cx="44.2504" cy="44.9281" r="44.2504" fill="#FF6348"/>
<path fill-rule="evenodd" clip-rule="evenodd" d="M44.2503 26.8004C40.7399 26.8004 37.6336 29.0734 36.5714 32.4192L34.7584 38.1301H36.3194H52.1811H53.7421L51.9291 32.4192C50.8668 29.0734 47.7605 26.8004 44.2503 26.8004ZM58.4967 38.1301L56.2484 31.0479C54.5889 25.82 49.7352 22.2686 44.2503 22.2686C38.7652 22.2686 33.9116 25.82 32.252 31.0479L30.0037 38.1301H24.6452C21.6043 38.1301 19.4262 41.0658 20.3081 43.9762L22.8556 52.3828L26.0004 62.7607C26.869 65.6272 29.5111 67.5872 32.5061 67.5872H39.7183H48.7822H55.9944C58.9893 67.5872 61.6314 65.6272 62.4999 62.7607L65.6448 52.3828L68.1924 43.9762C69.0743 41.0658 66.8963 38.1301 63.8552 38.1301H58.4967ZM31.6617 42.6619H24.6452L26.7052 49.4597H35.2685L34.3415 42.6619H31.6617ZM38.9153 42.6619L39.8424 49.4597H48.658L49.585 42.6619H38.9153ZM54.1588 42.6619L53.232 49.4597H61.7952L63.8552 42.6619H56.8387H54.1588ZM60.422 53.9916H52.6139L51.378 63.0553H55.9944C56.9928 63.0553 57.8733 62.4021 58.1629 61.4465L60.422 53.9916ZM46.8043 63.0553L48.0401 53.9916H40.4603L41.6962 63.0553H46.8043ZM37.1225 63.0553L35.8865 53.9916H28.0785L30.3375 61.4465C30.627 62.4021 31.5078 63.0553 32.5061 63.0553H37.1225Z" fill="white"/>
</svg>
