<svg width="89" height="88" viewBox="0 0 89 88" fill="none" xmlns="http://www.w3.org/2000/svg">
<path d="M87.0007 44C87.0007 67.4641 67.8688 86.5 44.2504 86.5C20.632 86.5 1.5 67.4641 1.5 44C1.5 20.5359 20.632 1.5 44.2504 1.5C67.8688 1.5 87.0007 20.5359 87.0007 44Z" stroke="#FF6348" stroke-width="3"/>
<path fill-rule="evenodd" clip-rule="evenodd" d="M35.3413 23.3052C34.7309 24.3673 34.1801 25.6829 33.6557 27.2346C29.6053 38.1077 23.3399 54.0048 20.3154 61.6374C18.9419 65.1035 22.2876 68.5732 25.8442 67.3727C33.5939 64.7565 49.6245 59.3815 60.5826 55.9587L60.6158 55.948C62.1881 55.4294 63.5147 54.8972 64.5795 54.3094C65.6333 53.7277 66.576 53.013 67.2096 52.0616C68.6554 49.8908 67.8541 47.6181 66.898 45.8616C60.882 34.8103 53.3617 27.0434 43.9705 21.1319C43.0736 20.5674 42.0694 20.088 40.9845 19.9365C39.8217 19.7741 38.6799 20.006 37.6524 20.6794C36.6904 21.3099 35.9494 22.2471 35.3413 23.3052ZM50.569 37.5554C47.0857 33.8722 43.2928 30.7598 38.3698 27.1635C38.6485 26.4703 38.9154 25.9112 39.171 25.4664C39.5956 24.7277 39.9173 24.431 40.0837 24.3219C40.1846 24.2558 40.2368 24.2425 40.3693 24.261C40.5793 24.2903 40.9713 24.418 41.6073 24.8182C50.3548 30.3246 57.3567 37.5331 63.0191 47.935C63.8078 49.384 63.5531 49.6347 63.5324 49.6548C63.4407 49.7921 63.1688 50.0889 62.4345 50.4944C62.0167 50.725 61.4944 50.9667 60.8481 51.2217C57.1938 45.4642 54.064 41.2509 50.569 37.5554ZM47.353 40.5417C50.4146 43.7787 53.2286 47.4989 56.5431 52.6481C45.7424 56.0727 31.5533 60.8316 24.4229 63.2386L24.4193 63.2397L24.4165 63.2369L24.4177 63.2336C27.201 56.21 32.7456 42.1451 36.7826 31.4352C41.0859 34.6261 44.3605 37.3773 47.353 40.5417ZM39.3499 46.09C41.784 46.09 43.7571 44.1348 43.7571 41.7228C43.7571 39.3109 41.784 37.3556 39.3499 37.3556C36.9158 37.3556 34.9426 39.3109 34.9426 41.7228C34.9426 44.1348 36.9158 46.09 39.3499 46.09ZM39.3499 52.6409C39.3499 55.0529 37.3767 57.0081 34.9426 57.0081C32.5085 57.0081 30.5353 55.0529 30.5353 52.6409C30.5353 50.2288 32.5085 48.2736 34.9426 48.2736C37.3767 48.2736 39.3499 50.2288 39.3499 52.6409ZM45.9608 54.8245C48.3949 54.8245 50.3681 52.8693 50.3681 50.4573C50.3681 48.0452 48.3949 46.09 45.9608 46.09C43.5266 46.09 41.5535 48.0452 41.5535 50.4573C41.5535 52.8693 43.5266 54.8245 45.9608 54.8245Z" fill="#FF6348"/>
</svg>
